# xmcd
#
# Track frame offsets:
#       150
#       3668
#       22176
#       40448
#       57188
#       74039
#       93813
#       111790
#       130911
#       148877
#       169253
#       187068
#       203815
#       221365
#       234911
#       250895
#       267230
#       270131
#       285805
#       301679
#       319256
#       332702
#
# Disc length: 4697 seconds
#
# Revision: 0
# Processed by: cddbd v1.5.1PL0 Copyright (c) Steve Scherf et al.
# Submitted via: WaveLab 4.01
#
DISCID=42125716
DTITLE=g muziq - gmuziq mixtape disk 1
DYEAR=2004
DGENRE=
TTITLE0=sam gimmesum
TTITLE1=y is it like that
TTITLE2=sexual like
TTITLE3=trikn
TTITLE4=you dont want dat
TTITLE5=bob and weve
TTITLE6=ride wit us
TTITLE7=in da hood
TTITLE8=letspromp3
TTITLE9=we come thru
TTITLE10=rudiggin
TTITLE11=straight from us
TTITLE12=sunshine
TTITLE13=swole
TTITLE14=girlfriend
TTITLE15=ride or die
TTITLE16=interlude the shop
TTITLE17=no one else
TTITLE18=bring it
TTITLE19=everyday struggle
TTITLE20=hot 2 death
TTITLE21=gotta b heat
EXTD=
EXTT0=
EXTT1=
EXTT2=
EXTT3=
EXTT4=
EXTT5=
EXTT6=
EXTT7=
EXTT8=
EXTT9=
EXTT10=
EXTT11=
EXTT12=
EXTT13=
EXTT14=
EXTT15=
EXTT16=
EXTT17=
EXTT18=
EXTT19=
EXTT20=
EXTT21=
PLAYORDER=
